# Blender 3.6.4
# www.blender.org
mtllib grassBunch.mtl
o Cube.013
v 0.848925 -0.026946 0.081764
v 0.879772 -0.026946 0.098642
v 0.822255 -0.026946 0.203766
v 0.791408 -0.026946 0.186889
v 0.819785 0.285016 0.162975
v 0.827092 0.285016 0.166973
v 0.813948 0.277553 0.190997
v 0.806641 0.277553 0.186999
v 0.866648 0.106089 0.108651
v 0.847572 0.106089 0.098214
v 0.831318 0.102358 0.173226
v 0.812241 0.102358 0.162788
v 0.772894 -0.026946 0.152734
v 0.794617 -0.026946 0.180383
v 0.700393 -0.026946 0.254417
v 0.678669 -0.026946 0.226769
v 0.778678 0.260568 0.165252
v 0.783824 0.260568 0.171801
v 0.765152 0.279366 0.186471
v 0.760007 0.279366 0.179922
v 0.765890 0.086383 0.194423
v 0.752455 0.086383 0.177325
v 0.708484 0.084134 0.239528
v 0.695050 0.084134 0.222429
v 0.768405 0.158763 0.169059
v 0.777695 0.158763 0.180882
v 0.739914 0.165557 0.210567
v 0.730624 0.165557 0.198743
v 0.793183 -0.026946 -0.018873
v 0.828335 -0.026946 -0.018038
v 0.825488 -0.026946 0.101759
v 0.790336 -0.026946 0.100924
v 0.804571 0.285016 0.066653
v 0.812897 0.285016 0.066851
v 0.812245 0.277532 0.094276
v 0.803919 0.277532 0.094078
v 0.821176 0.071565 0.000862
v 0.799437 0.071565 0.000345
v 0.819425 0.067812 0.074497
v 0.797686 0.067812 0.073980
v 0.801609 0.170987 0.050093
v 0.816642 0.170987 0.050450
v 0.815442 0.165390 0.100932
v 0.800409 0.165390 0.100574
vn 0.4769 0.1126 -0.8717
vn 0.8757 0.0511 0.4802
vn -0.4666 0.2342 0.8529
vn -0.8766 0.0511 -0.4785
vn -0.0000 -1.0000 -0.0000
vn -0.1262 0.9648 0.2307
vn 0.4469 0.3650 -0.8167
vn 0.8747 0.0368 0.4832
vn -0.4756 -0.1353 0.8692
vn -0.8786 0.0368 -0.4761
vn 0.7580 0.2659 -0.5956
vn 0.6162 0.0596 0.7853
vn -0.7787 0.1387 0.6118
vn -0.6173 0.0596 -0.7845
vn 0.4881 0.7841 -0.3835
vn 0.7639 -0.2369 -0.6002
vn 0.6185 0.0429 0.7846
vn -0.6967 0.4636 0.5474
vn -0.6160 0.0429 -0.7866
vn 0.7822 -0.1019 -0.6146
vn 0.6256 0.0289 0.7796
vn -0.7521 0.2919 0.5909
vn -0.6094 0.0289 -0.7923
vn 0.0233 0.1900 -0.9815
vn 0.9973 0.0693 0.0250
vn -0.0228 0.2751 0.9612
vn -0.9973 0.0693 -0.0224
vn -0.0063 0.9647 0.2631
vn 0.0213 0.4470 -0.8943
vn 0.9991 0.0331 0.0262
vn -0.0229 -0.2623 0.9647
vn -0.9992 0.0331 -0.0213
vn 0.0235 0.1431 -0.9894
vn 0.9992 0.0294 0.0287
vn -0.0237 0.0586 0.9980
vn -0.9994 0.0294 -0.0188
s 0
usemtl Grass
f 10//1 9//1 2//1 1//1
f 9//2 11//2 3//2 2//2
f 11//3 12//3 4//3 3//3
f 12//4 10//4 1//4 4//4
f 1//5 2//5 3//5 4//5
f 8//6 7//6 6//6 5//6
f 5//7 6//7 9//7 10//7
f 6//8 7//8 11//8 9//8
f 7//9 8//9 12//9 11//9
f 8//10 5//10 10//10 12//10
f 22//11 21//11 14//11 13//11
f 21//12 23//12 15//12 14//12
f 23//13 24//13 16//13 15//13
f 24//14 22//14 13//14 16//14
f 13//5 14//5 15//5 16//5
f 20//15 19//15 18//15 17//15
f 25//16 26//16 21//16 22//16
f 26//17 27//17 23//17 21//17
f 27//18 28//18 24//18 23//18
f 28//19 25//19 22//19 24//19
f 17//20 18//20 26//20 25//20
f 18//21 19//21 27//21 26//21
f 19//22 20//22 28//22 27//22
f 20//23 17//23 25//23 28//23
f 38//24 37//24 30//24 29//24
f 37//25 39//25 31//25 30//25
f 39//26 40//26 32//26 31//26
f 40//27 38//27 29//27 32//27
f 29//5 30//5 31//5 32//5
f 36//28 35//28 34//28 33//28
f 41//29 42//29 37//29 38//29
f 42//30 43//30 39//30 37//30
f 43//31 44//31 40//31 39//31
f 44//32 41//32 38//32 40//32
f 33//33 34//33 42//33 41//33
f 34//34 35//34 43//34 42//34
f 35//35 36//35 44//35 43//35
f 36//36 33//36 41//36 44//36
o Cube.002
v 0.910187 -0.026946 0.376098
v 0.931925 -0.026946 0.348461
v 1.026110 -0.026946 0.422546
v 1.004371 -0.026946 0.450183
v 0.985472 0.285016 0.418246
v 0.990621 0.285016 0.411700
v 1.012144 0.277553 0.428631
v 1.006995 0.277553 0.435177
v 0.939631 0.106089 0.363057
v 0.926187 0.106089 0.380149
v 0.997485 0.102358 0.408565
v 0.984041 0.102358 0.425656
v 0.967629 -0.026946 0.462804
v 0.998484 -0.026946 0.445943
v 1.055945 -0.026946 0.551099
v 1.025089 -0.026946 0.567959
v 0.980930 0.260568 0.459166
v 0.988238 0.260568 0.455172
v 0.999624 0.279366 0.476009
v 0.992316 0.279366 0.480003
v 1.007589 0.086383 0.476595
v 0.988507 0.086383 0.487022
v 1.042596 0.084134 0.540660
v 1.023514 0.084134 0.551087
v 0.982988 0.158763 0.469927
v 0.996183 0.158763 0.462716
v 1.019222 0.165557 0.504879
v 1.006027 0.165557 0.512090
v 0.801727 -0.026946 0.414458
v 0.808355 -0.026946 0.379927
v 0.926037 -0.026946 0.402515
v 0.919409 -0.026946 0.437046
v 0.887959 0.285016 0.417348
v 0.889529 0.285016 0.409169
v 0.916470 0.277532 0.414340
v 0.914900 0.277532 0.422519
v 0.825813 0.071565 0.390108
v 0.821714 0.071565 0.411464
v 0.898148 0.067812 0.403993
v 0.894049 0.067812 0.425348
v 0.871137 0.170987 0.417535
v 0.873972 0.170987 0.402768
v 0.923562 0.165390 0.412286
v 0.920728 0.165390 0.427053
vn -0.7810 0.1126 -0.6143
vn 0.6182 0.0511 -0.7843
vn 0.7641 0.2342 0.6011
vn -0.6167 0.0511 0.7856
vn -0.0000 -1.0000 -0.0000
vn 0.2067 0.9648 0.1626
vn -0.7318 0.3650 -0.5756
vn 0.6210 0.0368 -0.7829
vn 0.7788 -0.1353 0.6126
vn -0.6146 0.0368 0.7880
vn -0.4622 0.2659 -0.8459
vn 0.8763 0.0596 -0.4780
vn 0.4749 0.1387 0.8690
vn -0.8756 0.0596 0.4793
vn -0.2976 0.7841 -0.5447
vn -0.4659 -0.2369 -0.8526
vn 0.8760 0.0429 -0.4805
vn 0.4249 0.4636 0.7775
vn -0.8775 0.0429 0.4777
vn -0.4770 -0.1019 -0.8730
vn 0.8722 0.0289 -0.4883
vn 0.4586 0.2919 0.8393
vn -0.8821 0.0289 0.4702
vn -0.9642 0.1900 -0.1851
vn 0.1894 0.0693 -0.9795
vn 0.9442 0.2751 0.1812
vn -0.1867 0.0693 0.9800
vn 0.2585 0.9647 0.0496
vn -0.8785 0.4470 -0.1686
vn 0.1908 0.0331 -0.9811
vn 0.9477 -0.2623 0.1819
vn -0.1860 0.0331 0.9820
vn -0.9720 0.1431 -0.1866
vn 0.1933 0.0294 -0.9807
vn 0.9804 0.0586 0.1882
vn -0.1836 0.0294 0.9826
s 0
usemtl Grass
f 54//37 53//37 46//37 45//37
f 53//38 55//38 47//38 46//38
f 55//39 56//39 48//39 47//39
f 56//40 54//40 45//40 48//40
f 45//41 46//41 47//41 48//41
f 52//42 51//42 50//42 49//42
f 49//43 50//43 53//43 54//43
f 50//44 51//44 55//44 53//44
f 51//45 52//45 56//45 55//45
f 52//46 49//46 54//46 56//46
f 66//47 65//47 58//47 57//47
f 65//48 67//48 59//48 58//48
f 67//49 68//49 60//49 59//49
f 68//50 66//50 57//50 60//50
f 57//41 58//41 59//41 60//41
f 64//51 63//51 62//51 61//51
f 69//52 70//52 65//52 66//52
f 70//53 71//53 67//53 65//53
f 71//54 72//54 68//54 67//54
f 72//55 69//55 66//55 68//55
f 61//56 62//56 70//56 69//56
f 62//57 63//57 71//57 70//57
f 63//58 64//58 72//58 71//58
f 64//59 61//59 69//59 72//59
f 82//60 81//60 74//60 73//60
f 81//61 83//61 75//61 74//61
f 83//62 84//62 76//62 75//62
f 84//63 82//63 73//63 76//63
f 73//41 74//41 75//41 76//41
f 80//64 79//64 78//64 77//64
f 85//65 86//65 81//65 82//65
f 86//66 87//66 83//66 81//66
f 87//67 88//67 84//67 83//67
f 88//68 85//68 82//68 84//68
f 77//69 78//69 86//69 85//69
f 78//70 79//70 87//70 86//70
f 79//71 80//71 88//71 87//71
f 80//72 77//72 85//72 88//72
o Cube.001
v 1.024702 -0.026946 0.156234
v 1.024702 -0.026946 0.121073
v 1.144533 -0.026946 0.121073
v 1.144533 -0.026946 0.156234
v 1.109933 0.285016 0.142818
v 1.109933 0.285016 0.134489
v 1.137317 0.277553 0.134489
v 1.137317 0.277553 0.142818
v 1.039782 0.106089 0.127781
v 1.039782 0.106089 0.149526
v 1.113390 0.102358 0.127781
v 1.113390 0.102358 0.149526
v 1.123456 -0.026946 0.188870
v 1.137284 -0.026946 0.156542
v 1.247459 -0.026946 0.203668
v 1.233631 -0.026946 0.235996
v 1.131661 0.260568 0.177787
v 1.134937 0.260568 0.170130
v 1.156769 0.279366 0.179468
v 1.153493 0.279366 0.187126
v 1.163390 0.086383 0.175004
v 1.154839 0.086383 0.194997
v 1.230514 0.084134 0.203716
v 1.221962 0.084134 0.223709
v 1.139932 0.158763 0.184973
v 1.145845 0.158763 0.171148
v 1.190021 0.165557 0.190043
v 1.184108 0.165557 0.203869
v 0.963171 -0.026946 0.253440
v 0.947031 -0.026946 0.222201
v 1.053493 -0.026946 0.167198
v 1.069632 -0.026946 0.198437
v 1.032734 0.285016 0.202399
v 1.028912 0.285016 0.194999
v 1.053284 0.277532 0.182408
v 1.057106 0.277532 0.189807
v 0.967047 0.071565 0.219411
v 0.977029 0.071565 0.238730
v 1.032486 0.067812 0.185602
v 1.042467 0.067812 0.204921
v 1.019628 0.170987 0.212945
v 1.012726 0.170987 0.199586
v 1.057588 0.165390 0.176408
v 1.064490 0.165390 0.189767
vn -0.9936 0.1126 -0.0000
vn 0.0010 0.0511 -0.9987
vn 0.9722 0.2342 -0.0000
vn 0.0010 0.0511 0.9987
vn -0.0000 -1.0000 -0.0000
vn 0.2629 0.9648 -0.0000
vn -0.9310 0.3650 -0.0000
vn 0.0041 0.0368 -0.9993
vn 0.9908 -0.1353 -0.0000
vn 0.0041 0.0368 0.9993
vn -0.8863 0.2659 -0.3791
vn 0.3932 0.0596 -0.9175
vn 0.9105 0.1387 0.3895
vn -0.3919 0.0596 0.9181
vn -0.5707 0.7841 -0.2441
vn -0.8933 -0.2369 -0.3821
vn 0.3914 0.0429 -0.9192
vn 0.8146 0.4636 0.3484
vn -0.3944 0.0429 0.9179
vn -0.9146 -0.1019 -0.3912
vn 0.3836 0.0289 -0.9230
vn 0.8794 0.2919 0.3761
vn -0.4026 0.0289 0.9149
vn -0.8722 0.1900 0.4506
vn -0.4567 0.0693 -0.8869
vn 0.8542 0.2751 -0.4413
vn 0.4591 0.0693 0.8857
vn 0.2338 0.9647 -0.1208
vn -0.7947 0.4470 0.4106
vn -0.4565 0.0331 -0.8891
vn 0.8573 -0.2623 -0.4429
vn 0.4610 0.0331 0.8868
vn -0.8793 0.1431 0.4543
vn -0.4544 0.0294 -0.8903
vn 0.8869 0.0586 -0.4582
vn 0.4632 0.0294 0.8858
s 0
usemtl Grass
f 98//73 97//73 90//73 89//73
f 97//74 99//74 91//74 90//74
f 99//75 100//75 92//75 91//75
f 100//76 98//76 89//76 92//76
f 89//77 90//77 91//77 92//77
f 96//78 95//78 94//78 93//78
f 93//79 94//79 97//79 98//79
f 94//80 95//80 99//80 97//80
f 95//81 96//81 100//81 99//81
f 96//82 93//82 98//82 100//82
f 110//83 109//83 102//83 101//83
f 109//84 111//84 103//84 102//84
f 111//85 112//85 104//85 103//85
f 112//86 110//86 101//86 104//86
f 101//77 102//77 103//77 104//77
f 108//87 107//87 106//87 105//87
f 113//88 114//88 109//88 110//88
f 114//89 115//89 111//89 109//89
f 115//90 116//90 112//90 111//90
f 116//91 113//91 110//91 112//91
f 105//92 106//92 114//92 113//92
f 106//93 107//93 115//93 114//93
f 107//94 108//94 116//94 115//94
f 108//95 105//95 113//95 116//95
f 126//96 125//96 118//96 117//96
f 125//97 127//97 119//97 118//97
f 127//98 128//98 120//98 119//98
f 128//99 126//99 117//99 120//99
f 117//77 118//77 119//77 120//77
f 124//100 123//100 122//100 121//100
f 129//101 130//101 125//101 126//101
f 130//102 131//102 127//102 125//102
f 131//103 132//103 128//103 127//103
f 132//104 129//104 126//104 128//104
f 121//105 122//105 130//105 129//105
f 122//106 123//106 131//106 130//106
f 123//107 124//107 132//107 131//107
f 124//108 121//108 129//108 132//108
