# Blender 3.6.4
# www.blender.org
mtllib rock3.mtl
o Icosphere.006
v -2.027574 -0.041117 1.589840
v -1.703726 -0.041045 1.636250
v -2.039349 -0.041091 1.868483
v -2.355335 -0.043697 1.714433
v -2.220527 -0.041291 1.388868
v -1.815376 -0.040959 1.339929
v -1.896483 0.231591 1.727210
v -2.188085 0.184527 1.810605
v -2.263026 0.164467 1.561560
v -1.999850 0.239125 1.302471
v -1.676591 0.242716 1.454072
v -2.028579 0.388911 1.588806
v -1.836946 -0.041117 1.617403
v -1.843923 -0.041093 1.781126
v -2.034396 -0.041117 1.753723
v -1.902935 -0.041117 1.442994
v -1.712297 -0.041108 1.470551
v -2.228340 -0.041776 1.826914
v -2.222420 -0.041117 1.663562
v -2.334982 -0.041704 1.546279
v -2.141170 -0.041117 1.471520
v -2.016531 -0.041117 1.324672
v -1.692327 0.103806 1.360906
v -1.641559 0.087599 1.543395
v -1.754244 0.091810 1.703954
v -1.952653 0.091958 1.839291
v -2.153037 0.082653 1.897043
v -2.305774 0.056943 1.786234
v -2.355674 0.049069 1.639901
v -2.305108 0.071624 1.467767
v -2.134349 0.087026 1.307635
v -1.878859 0.105396 1.269951
v -1.745659 0.251163 1.605371
v -2.057375 0.246244 1.829196
v -2.246084 0.179197 1.691839
v -2.193438 0.235609 1.417362
v -1.789701 0.284203 1.333020
v -1.815896 0.361614 1.507185
v -1.948903 0.349101 1.672248
v -2.121192 0.321081 1.718432
v -2.170426 0.312529 1.569824
v -2.009583 0.355585 1.420030
vn -0.0000 -1.0000 -0.0000
vn 0.0005 -1.0000 0.0004
vn 0.8861 -0.4612 -0.0457
vn 0.4072 -0.0655 0.9110
vn -0.6472 -0.2051 0.7342
vn -0.7937 -0.1909 -0.5776
vn 0.0694 -0.4057 -0.9114
vn 0.8186 0.0187 0.5740
vn 0.2755 0.0313 0.9608
vn -0.9229 0.2391 0.3018
vn -0.6839 -0.0025 -0.7296
vn 0.4245 -0.2341 -0.8746
vn 0.4860 0.5387 0.6882
vn -0.3956 0.6390 0.6597
vn -0.8480 0.5275 0.0506
vn -0.4035 0.6331 -0.6606
vn 0.5668 0.7811 -0.2619
vn 0.0001 -1.0000 0.0002
vn 0.0005 -1.0000 0.0002
vn 0.0002 -1.0000 -0.0013
vn 0.0001 -1.0000 -0.0000
vn 0.0181 -0.9998 -0.0034
vn 0.0019 -1.0000 -0.0040
vn 0.0035 -1.0000 0.0004
vn 0.0028 -1.0000 -0.0006
vn 0.0036 -1.0000 0.0015
vn 0.0156 -0.9998 -0.0100
vn 0.0008 -1.0000 -0.0008
vn 0.0012 -1.0000 0.0010
vn 0.9628 0.0666 -0.2619
vn 0.8993 -0.3358 -0.2800
vn 0.6796 -0.4999 -0.5369
vn 0.5167 0.3998 0.7571
vn 0.5608 0.0989 0.8220
vn 0.7163 -0.0809 0.6931
vn -0.5812 0.4009 0.7081
vn -0.5710 -0.1128 0.8132
vn -0.1966 -0.3884 0.9003
vn -0.8216 0.5442 -0.1700
vn -0.9597 0.0634 -0.2736
vn -0.9876 -0.1006 -0.1207
vn -0.1523 0.1013 -0.9831
vn -0.1245 -0.2424 -0.9622
vn -0.2782 -0.3734 -0.8850
vn 0.5355 0.4233 0.7308
vn 0.7859 0.2941 0.5439
vn 0.8424 0.3989 0.3623
vn -0.3591 0.5289 0.7690
vn 0.2589 0.2370 0.9364
vn 0.5164 0.4000 0.7572
vn -0.7701 0.6373 0.0281
vn -0.7876 0.5683 0.2380
vn -0.7250 0.6063 0.3268
vn -0.4746 0.3929 -0.7876
vn -0.6748 0.2456 -0.6959
vn -0.8380 0.5261 -0.1448
vn 0.7453 0.3111 -0.5897
vn 0.4369 0.0976 -0.8942
vn 0.0743 0.2986 -0.9515
vn 0.2154 0.9452 0.2453
vn 0.5037 0.7304 0.4613
vn 0.6827 0.6775 0.2738
vn -0.0247 0.8929 0.4496
vn 0.0133 0.8321 0.5545
vn 0.4855 0.5386 0.6886
vn -0.4826 0.8689 0.1099
vn -0.7528 0.6226 0.2136
vn -0.7377 0.5868 0.3339
vn -0.4392 0.8707 -0.2214
vn -0.5138 0.7946 -0.3233
vn -0.8357 0.5306 -0.1415
vn 0.0539 0.9808 -0.1876
vn 0.1443 0.9121 -0.3837
vn -0.0493 0.7075 -0.7050
s 0
usemtl Rock
f 1//1 13//1 15//1
f 2//2 13//2 17//2
f 1//1 15//1 19//1
f 1//1 19//1 21//1
f 1//1 21//1 16//1
f 2//3 17//3 24//3
f 3//4 14//4 26//4
f 4//5 18//5 28//5
f 5//6 20//6 30//6
f 6//7 22//7 32//7
f 2//8 24//8 25//8
f 3//9 26//9 27//9
f 4//10 28//10 29//10
f 5//11 30//11 31//11
f 6//12 32//12 23//12
f 7//13 33//13 39//13
f 8//14 34//14 40//14
f 9//15 35//15 41//15
f 10//16 36//16 42//16
f 11//17 37//17 38//17
f 15//18 14//18 3//18
f 15//18 13//18 14//18
f 13//19 2//19 14//19
f 17//20 16//20 6//20
f 17//21 13//21 16//21
f 13//1 1//1 16//1
f 19//22 18//22 4//22
f 19//23 15//23 18//23
f 15//24 3//24 18//24
f 21//25 20//25 5//25
f 21//26 19//26 20//26
f 19//27 4//27 20//27
f 16//28 22//28 6//28
f 16//1 21//1 22//1
f 21//29 5//29 22//29
f 24//30 23//30 11//30
f 24//31 17//31 23//31
f 17//32 6//32 23//32
f 26//33 25//33 7//33
f 26//34 14//34 25//34
f 14//35 2//35 25//35
f 28//36 27//36 8//36
f 28//37 18//37 27//37
f 18//38 3//38 27//38
f 30//39 29//39 9//39
f 30//40 20//40 29//40
f 20//41 4//41 29//41
f 32//42 31//42 10//42
f 32//43 22//43 31//43
f 22//44 5//44 31//44
f 25//45 33//45 7//45
f 25//46 24//46 33//46
f 24//47 11//47 33//47
f 27//48 34//48 8//48
f 27//49 26//49 34//49
f 26//50 7//50 34//50
f 29//51 35//51 9//51
f 29//52 28//52 35//52
f 28//53 8//53 35//53
f 31//54 36//54 10//54
f 31//55 30//55 36//55
f 30//56 9//56 36//56
f 23//57 37//57 11//57
f 23//58 32//58 37//58
f 32//59 10//59 37//59
f 39//60 38//60 12//60
f 39//61 33//61 38//61
f 33//62 11//62 38//62
f 40//63 39//63 12//63
f 40//64 34//64 39//64
f 34//65 7//65 39//65
f 41//66 40//66 12//66
f 41//67 35//67 40//67
f 35//68 8//68 40//68
f 42//69 41//69 12//69
f 42//70 36//70 41//70
f 36//71 9//71 41//71
f 38//72 42//72 12//72
f 38//73 37//73 42//73
f 37//74 10//74 42//74
